<?xml version="1.0" encoding="UTF-8" standalone="no"?>
<!DOCTYPE svg PUBLIC "-//W3C//DTD SVG 1.1//EN" "http://www.w3.org/Graphics/SVG/1.1/DTD/svg11.dtd">
<svg width="100%" height="100%" viewBox="0 0 78 78" version="1.1" xmlns="http://www.w3.org/2000/svg" xmlns:xlink="http://www.w3.org/1999/xlink" xml:space="preserve" xmlns:serif="http://www.serif.com/" style="fill-rule:evenodd;clip-rule:evenodd;stroke-linejoin:round;stroke-miterlimit:2;">
    <g transform="matrix(1,0,0,1,-84,0)">
        <g id="Artboard2" transform="matrix(1,0,0,1,-0.883469,0)">
            <rect x="84.883" y="0" width="77.3" height="77.239" style="fill:none;"/>
            <g transform="matrix(0.74754,0,0,0.74754,31.8705,9.73388)">
                <path d="M122.62,0C143.934,0 161.239,17.305 161.239,38.62C161.239,59.934 143.934,77.239 122.62,77.239C101.305,77.239 84,59.934 84,38.62C84,17.305 101.305,0 122.62,0ZM124.199,6.304C123.795,6.284 123.027,6.259 122.66,6.259C104.82,6.259 90.301,20.783 90.301,38.612C90.301,47.272 93.666,55.389 99.761,61.493C105.881,67.583 114.002,70.948 122.66,70.948C131.285,70.948 139.404,67.583 145.513,61.493C151.623,55.389 155.004,47.272 155.004,38.612L155.004,37.173L131.898,37.173L131.898,40.151L151.922,40.151C151.922,40.216 151.922,40.532 151.908,40.614C150.89,55.856 138.16,67.928 122.66,67.928C114.814,67.928 107.457,64.877 101.92,59.336C96.365,53.818 93.304,46.467 93.304,38.611C93.304,30.8 96.365,23.411 101.92,17.876C107.457,12.346 114.814,9.295 122.66,9.295C122.998,9.295 123.82,9.295 124.199,9.315L124.199,6.304ZM121.095,21.676L121.095,55.563L131.868,55.563L131.868,52.516L124.2,52.516L124.2,21.676L121.095,21.676ZM110.308,30.922C112.871,30.922 114.937,28.838 114.937,26.293C114.937,23.746 112.871,21.654 110.308,21.654C107.745,21.654 105.679,23.746 105.679,26.293C105.679,28.84 107.745,30.922 110.308,30.922Z" style="fill:white;"/>
            </g>
        </g>
    </g>
</svg>
